<svg class="icon" width="200" height="200" viewBox="0 0 1024 1024" xmlns="http://www.w3.org/2000/svg"><path d="M510.827 64.042c247.096.027 448.767 201.816 448.28 448.541-.49 247.641-201.839 448.844-448.57 448.241C263.075 960.22 62.84 759.868 62.513 512.535c-.329-246.882 201.23-448.521 448.314-448.493zm405.948 448.323c-.036-223.591-181.117-405.318-405.726-405.778-223.89-.459-405.925 181.253-406.16 405.79-.232 223.613 181.45 405.166 405.674 405.805 223.336.636 406.248-182.097 406.212-405.817zM535.795 657.3h-56.939c0-11.373-.608-22.537.128-33.612 1.485-22.365 6.658-43.815 18.344-63.301 9.094-15.164 20.675-28.25 33.54-40.276 15.98-14.935 32.149-29.678 47.81-44.94 9.223-8.985 17.42-19.009 21.68-31.483 10.208-29.883 3.682-56.57-16.199-80.337-33.015-39.47-88.235-40.821-122.05-21.066-21.314 12.45-34.093 31.502-41.553 54.414-3.344 10.272-5.653 20.88-8.65 32.155l-60.637-7.199c.779-5.205 1.337-10.1 2.263-14.924 5.196-27.06 14.59-52.297 32.253-73.943 21.52-26.37 49.555-41.723 82.58-48.061 34.471-6.616 68.92-5.902 102.442 4.986 42.92 13.94 74.68 41.177 89.113 84.564 13.857 41.655 7.048 81.004-20.227 116.156-17.302 22.299-38.82 40.415-59.041 59.831-8.896 8.542-17.896 17.137-25.623 26.697-11.477 14.198-15.858 31.37-17.242 49.325-.781 10.137-1.313 20.294-1.992 31.014zm-60.637 120.44V710.33h67.458v67.411h-67.458z" fill="#272636"/></svg>